<svg width="180" height="50" viewBox="0 0 180 50" xmlns="http://www.w3.org/2000/svg">
  <!-- Circuit board style background -->
  <rect x="5" y="12" width="35" height="26" rx="4" fill="#1a1a1a" stroke="#F7AB0A" stroke-width="1.5"/>
  
  <!-- Circuit patterns -->
  <rect x="8" y="18" width="3" height="3" fill="#F7AB0A"/>
  <rect x="15" y="18" width="3" height="3" fill="#F7AB0A"/>
  <rect x="25" y="18" width="3" height="3" fill="#F7AB0A"/>
  <rect x="32" y="18" width="3" height="3" fill="#F7AB0A"/>
  
  <rect x="8" y="28" width="3" height="3" fill="#22c55e"/>
  <rect x="15" y="28" width="3" height="3" fill="#22c55e"/>
  <rect x="25" y="28" width="3" height="3" fill="#22c55e"/>
  <rect x="32" y="28" width="3" height="3" fill="#22c55e"/>
  
  <!-- Connecting lines -->
  <line x1="11" y1="19.5" x2="14" y2="19.5" stroke="#F7AB0A" stroke-width="1"/>
  <line x1="18" y1="19.5" x2="24" y2="19.5" stroke="#F7AB0A" stroke-width="1"/>
  <line x1="28" y1="19.5" x2="31" y2="19.5" stroke="#F7AB0A" stroke-width="1"/>
  
  <line x1="11" y1="29.5" x2="14" y2="29.5" stroke="#22c55e" stroke-width="1"/>
  <line x1="18" y1="29.5" x2="24" y2="29.5" stroke="#22c55e" stroke-width="1"/>
  <line x1="28" y1="29.5" x2="31" y2="29.5" stroke="#22c55e" stroke-width="1"/>
  
  <!-- BREME text -->
  <text x="50" y="20" font-family="Arial, sans-serif" font-size="16" font-weight="bold" fill="white">BREME</text>
  
  <!-- Tagline -->
  <text x="50" y="35" font-family="Arial, sans-serif" font-size="8" fill="#F7AB0A" letter-spacing="1px">NEXT-GEN POS</text>
</svg> 